<svg width="2798" height="455" xmlns="http://www.w3.org/2000/svg" xmlns:xlink="http://www.w3.org/1999/xlink" overflow="hidden"><defs><clipPath id="clip0"><rect x="113" y="1284" width="2798" height="455"/></clipPath><clipPath id="clip1"><rect x="643" y="1361" width="2268" height="378"/></clipPath><clipPath id="clip2"><rect x="643" y="1361" width="2267" height="378"/></clipPath><clipPath id="clip3"><rect x="643" y="1361" width="2267" height="378"/></clipPath></defs><g clip-path="url(#clip0)" transform="translate(-113 -1284)"><g><g><g><path d="M178.087 1601.77 174.393 1607.26C156.832 1635 149.102 1667.34 151.133 1699.45L151.235 1700.64 152.423 1700.74C184.538 1702.77 216.878 1695.04 244.611 1677.48L250.103 1673.79 247.383 1677.63C243.05 1683.45 238.243 1689.03 232.966 1694.3 200.798 1726.47 157.576 1741.11 114.758 1738.41L113.569 1738.3 113.466 1737.12C110.761 1694.3 125.404 1651.08 157.573 1618.91 162.85 1613.63 168.424 1608.83 174.247 1604.49ZM465.405 1386.47C444.586 1365.65 410.831 1365.65 390.011 1386.47 369.192 1407.29 369.192 1441.05 390.011 1461.86 410.831 1482.68 444.586 1482.68 465.405 1461.86 486.224 1441.05 486.224 1407.29 465.405 1386.47ZM565.928 1285.95 566.131 1288.97C570.555 1391.24 536.059 1495.2 462.761 1576.77L457.288 1582.54 465.405 1688.04 251.792 1725.74 309.262 1668.27 297.85 1661.06C277.17 1647.09 257.524 1630.95 239.225 1612.65 220.926 1594.35 204.789 1574.71 190.808 1554.03L183.609 1542.61 126.135 1600.08 163.831 1386.47 269.339 1394.58 275.108 1389.12C356.67 1315.82 460.632 1281.32 562.904 1285.74Z" fill="#2563EB" fill-rule="evenodd"/></g></g></g><g clip-path="url(#clip1)"><g clip-path="url(#clip2)"><g clip-path="url(#clip3)"><path d="M1503.21 536.795C1502.38 536.592 1498.3 535.89 1494.15 535.217 1484.46 533.649 1471.07 529.288 1462.14 524.791 1452.15 519.762 1439.43 509.843 1433.06 502.13L1427.6 495.511 1444.24 478.88 1460.87 462.248 1466.17 467.349C1480.74 481.355 1492.77 487.095 1511.1 488.787 1539.63 491.42 1559.8 482.39 1569.06 462.837 1572.07 456.483 1572.24 455.471 1572.57 441.689 1572.96 425.763 1573.32 426.38 1566.63 431.58 1561.75 435.371 1550.24 441.03 1543.51 442.947 1535.03 445.359 1519.68 446.889 1511.27 446.155 1470.5 442.605 1440.17 416.549 1429.1 375.567 1426.86 367.239 1426 342.063 1427.63 331.985 1431.14 310.155 1440.3 292.724 1456.18 277.642 1474.8 259.958 1501.2 251.217 1527.38 254.066 1543.39 255.807 1554.99 260.114 1567.44 268.943L1573.74 273.407 1573.74 265.296 1573.74 257.186 1599.97 257.186 1626.21 257.186 1625.84 357.179C1625.44 467.38 1625.75 461.807 1619 478.66 1612.8 494.158 1599.78 510.014 1585.51 519.478 1576.57 525.4 1564.26 530.737 1552.58 533.768 1543.28 536.178 1539.74 536.549 1523.36 536.831 1513.11 537.011 1504.04 536.988 1503.21 536.786ZM1549.82 393.974C1568.88 384.925 1578.76 365.122 1575.71 342.09 1572.31 316.374 1552.37 300.412 1525.38 301.785 1499.59 303.094 1482.39 319.943 1480.39 345.843 1478.94 364.755 1487.87 383.041 1502.85 391.819 1511.53 396.906 1517.71 398.274 1530.47 397.939 1541.47 397.651 1542.55 397.43 1549.82 393.974ZM375.333 455.027C343.449 451.558 317.918 439.239 296.324 416.907L288.847 409.176 306.847 391.155 324.85 373.134 332.964 381.54C350.469 399.678 368.868 407.331 394.859 407.283 416.785 407.238 431.784 400.572 438.548 387.85 441.691 381.937 441.754 368.573 438.661 361.87 433.238 350.096 418.304 341.1 384.391 329.179 373.863 325.478 361.128 320.523 356.095 318.17 324.828 303.549 310.25 283.699 307.885 252.529 305.097 215.792 324.186 185.991 359.204 172.416 372.846 167.127 384.27 165.203 402.525 165.119 411.941 165.076 421.787 165.607 426.202 166.397 449.29 170.531 473.255 182.648 488.142 197.713L494.165 203.81 476.07 221.926 457.975 240.041 451.911 234.191C436.647 219.46 423.043 213.775 402.525 213.553 381.525 213.326 367.016 220.58 363.275 233.181 361.317 239.775 361.319 243.376 363.29 250.011 367.059 262.701 378.361 269.938 414.614 282.875 451.778 296.139 466.577 304.426 478.165 318.462 487.674 329.98 492.513 341.46 494.746 357.8 497.158 375.447 494.633 393.205 487.633 407.805 476.457 431.116 454.746 446.187 422.98 452.687 412.794 454.771 385.345 456.119 375.324 455.027ZM608.061 454.523C563.402 448.946 527.844 416.016 520.401 373.344 517.338 355.773 518.992 335.122 524.775 318.782 534.97 289.972 562.911 264.546 592.981 256.714 614.791 251.035 639.958 252.479 659.967 260.561 688.104 271.927 709.316 298.617 714.932 329.724 716.597 338.942 716.764 358.007 715.256 366.665L714.144 373.047 643.11 373.047 572.076 373.047 572.762 375.785C574.456 382.537 579.046 390.023 585.315 396.267 596.568 407.47 609.357 411.923 627.706 411.023 644.444 410.202 657.006 405.411 667.757 395.747L672.692 391.31 688.089 406.73 703.486 422.152 697.883 427.752C676.775 448.86 643.092 458.9 608.059 454.523ZM665.41 330.984C664.011 324.722 657.879 313.499 653.42 309.039 636.565 292.184 602.69 293.151 584.842 311.001 579.769 316.075 572.296 328.86 572.296 332.467 572.296 333.493 581.789 333.754 619.163 333.754L666.029 333.754ZM1045.81 455.057C1027.2 451.616 1018.36 448.282 1005.91 439.999 986.143 426.848 971.464 404.203 966.097 378.586 964.131 369.194 963.411 347.664 964.745 338.063 970.435 297.069 997.832 265.239 1035.36 256.019 1047.58 253.015 1066.93 253.042 1078.56 256.086 1088.7 258.732 1099.29 264.02 1107.19 270.385L1113.32 275.322 1113.32 266.259 1113.32 257.195 1139.51 257.195 1165.7 257.195 1165.7 354.418 1165.7 451.639 1139.51 451.639 1113.32 451.639 1113.32 442.526 1113.32 433.413 1107.02 438.512C1099.36 444.713 1086.89 451.018 1078.05 453.158 1071.57 454.726 1050.67 455.966 1045.81 455.068ZM1076.04 406.242C1090.25 403.974 1103.1 394.818 1109.51 382.391 1114.65 372.414 1115.84 367.064 1115.82 353.903 1115.8 340.252 1113.62 332.413 1107.1 322.654 1102.13 315.213 1096.66 310.643 1087.57 306.339 1080.73 303.101 1080.26 303.025 1066.97 303.025L1053.37 303.025 1045.56 306.753C1033.13 312.689 1024.15 323.201 1019.93 336.776 1017.73 343.823 1017.49 363.279 1019.51 370.526 1026.68 396.26 1049.24 410.515 1076.04 406.242ZM1745.01 454.526C1719.11 451.538 1695.76 439.754 1675.86 419.625 1670.67 414.378 1666.43 409.788 1666.43 409.428 1666.43 409.068 1670.96 404.259 1676.5 398.74L1686.57 388.707 1688.28 391.202C1691.67 396.152 1703.33 407.614 1709.24 411.826 1717.49 417.692 1724.14 420.896 1734.63 424.049 1746.26 427.547 1771.29 428.571 1783.26 426.038 1800.12 422.469 1814.61 412.24 1820.09 400.031 1825.21 388.615 1824.49 371.163 1818.42 359.467 1811.13 345.432 1797.1 336.623 1760.63 323.178 1726.75 310.691 1713.5 303.472 1702.18 291.327 1690.03 278.29 1685.18 264.657 1685.19 243.585 1685.21 224.563 1689.29 211.807 1699.24 199.67 1708.55 188.331 1724.26 178.714 1740.48 174.444 1750.72 171.746 1774.42 170.756 1786.5 172.522 1808.68 175.766 1828.03 185.578 1844.48 201.935L1851.85 209.268 1841.76 219.358 1831.67 229.448 1824.36 222.273C1811.4 209.553 1798.19 202.365 1782.88 199.699 1772.74 197.935 1752.15 198.975 1744.72 201.627 1730.95 206.54 1722.94 213.17 1717.97 223.762 1715.53 228.959 1715.29 230.582 1715.29 241.591 1715.29 253.251 1715.43 253.958 1718.6 260.433 1725.22 273.859 1738.89 282.83 1770.2 294.288 1803.01 306.289 1809.64 309.242 1821.08 316.937 1828.95 322.233 1839.35 332.91 1843.56 340.025 1853.7 357.132 1856.1 384.524 1849.35 405.9 1838.17 441.28 1796.9 460.513 1745.01 454.528ZM2107.24 454.616C2073.2 449.272 2044.76 424.973 2033.29 391.434 2027.53 374.597 2026.6 348.89 2031.1 330.784 2033.64 320.577 2040.52 305.662 2046.62 297.138 2051.75 289.979 2062.72 279.203 2069.75 274.411 2076.46 269.839 2089.69 263.869 2098.13 261.603 2107.91 258.982 2135.41 258.901 2144.98 261.468 2156.93 264.67 2169.44 271.765 2178.15 280.27 2182.46 284.48 2186.95 289.284 2188.12 290.946L2190.26 293.968 2190.28 278.101 2190.3 262.233 2204.41 262.233 2218.51 262.233 2218.51 356.936 2218.51 451.639 2204.41 451.639 2190.3 451.639 2190.3 435.933 2190.3 420.226 2186.44 425.108C2175.87 438.485 2159.23 449.477 2143.96 453.169 2135.99 455.097 2115.43 455.907 2107.22 454.618ZM2144.38 426.476C2155.13 423.727 2163.44 419.047 2171.26 411.34 2185.63 397.165 2191.51 381.208 2191.49 356.432 2191.49 341.665 2189.56 332.248 2184.29 321.212 2178.38 308.819 2167.48 297.427 2156.28 291.948 2136.35 282.185 2108.08 283.521 2089.74 295.093 2076.71 303.317 2065.86 317.135 2060.87 331.848 2057.1 342.997 2056.15 362.507 2058.8 374.757 2064.23 399.858 2083.38 420.003 2107.92 426.434 2118.09 429.098 2134.05 429.118 2144.38 426.479ZM748.606 354.416 748.606 257.193 775.303 257.193 802.003 257.193 802.003 266.256 802.003 275.32 808.298 270.23C821.904 259.232 837.466 254.005 856.911 253.904 874.61 253.811 885.268 256.889 899.052 266.079 911.256 274.217 921.924 287.495 927.657 301.686 932.558 313.82 932.902 318.908 932.94 379.704 932.961 410.789 932.682 439.691 932.324 443.93L931.671 451.639 905.625 451.639 879.578 451.639 879.578 391.877C879.578 326.236 879.6 326.63 873.444 317.322 869.482 311.339 860.7 304.98 853.425 302.827 845.359 300.439 833.177 300.734 825.932 303.49 817.897 306.55 809.963 314.034 805.803 322.483L802.504 329.184 802.216 390.41 801.928 451.639 775.267 451.639 748.606 451.639ZM1212.05 354.416 1212.05 257.193 1238.75 257.193 1265.45 257.193 1265.45 266.346 1265.45 275.5 1269.85 271.636C1292.18 252.034 1328.96 247.914 1355.8 262.006 1373.7 271.405 1389.15 291.106 1393.9 310.592 1396.31 320.467 1396.76 340.034 1395.93 398.495L1395.17 451.639 1369.13 451.639 1343.08 451.639 1342.8 389.931 1342.52 328.221 1339.74 322.569C1336.48 315.931 1327.76 307.271 1321.58 304.537 1316.06 302.093 1306.65 300.608 1300.21 301.162 1285.79 302.399 1274.94 310.043 1268.71 323.347L1265.95 329.229 1265.67 390.435 1265.39 451.639 1238.72 451.639 1212.05 451.639ZM1932.4 370.031 1932.4 288.426 1908.19 288.426 1883.98 288.426 1884.26 275.581 1884.54 262.735 1908.47 262.465 1932.4 262.195 1932.4 222.418 1932.4 182.641 1946.5 182.641 1960.61 182.641 1960.61 222.436 1960.61 262.231 1984.29 262.231 2007.96 262.231 2007.96 275.329 2007.96 288.426 1984.29 288.426 1960.61 288.426 1960.61 370.034 1960.61 451.639 1946.5 451.639 1932.4 451.639ZM2275.96 356.936 2275.96 262.231 2290.07 262.231 2304.17 262.231 2304.2 274.573 2304.22 286.914 2306.36 283.892C2310.88 277.583 2320.01 269.622 2326.92 266.018 2336.37 261.079 2344.65 259.243 2357.59 259.225 2369.58 259.209 2377.21 260.811 2386.26 265.235 2392.6 268.347 2404.89 277.723 2404.89 279.458 2404.89 280.016 2400.88 284.612 2395.98 289.673L2387.04 298.871 2382.54 295.188C2374.58 288.663 2367.54 286.12 2356.06 285.625 2331.76 284.576 2314.86 295.602 2307.01 317.643 2304.69 324.186 2304.69 324.249 2304.38 387.915L2304.06 451.639 2290 451.639 2275.94 451.639ZM2463.34 370.031 2463.34 288.426 2439.18 288.426 2414.99 288.426 2414.99 275.329 2414.99 262.231 2439.18 262.231 2463.34 262.231 2463.34 222.436 2463.34 182.64 2477.45 182.64 2491.56 182.64 2491.56 222.436 2491.56 262.231 2515.23 262.231 2538.9 262.231 2538.9 275.329 2538.9 288.426 2515.23 288.426 2491.56 288.426 2491.56 370.031 2491.56 451.639 2477.45 451.639 2463.34 451.639Z" transform="matrix(1 0 0 1.01658 362.623 1193.15)"/></g></g></g></g></svg>